<svg xmlns="http://www.w3.org/2000/svg" viewBox="0 0 256 256" stroke="#333" stroke-width="2" stroke-linecap="round" stroke-linejoin="round">
	<linearGradient id="gradient" x1="0" y1="0" x2="1" y2="1">
		<stop offset="16.67%" stop-color="#ffc" />
		<stop offset="16.67%" stop-color="#fcc" />
		<stop offset="33.33%" stop-color="#fcc" />
		<stop offset="33.33%" stop-color="#fcf" />
		<stop offset="50.00%" stop-color="#fcf" />
		<stop offset="50.00%" stop-color="#ccf" />
		<stop offset="66.67%" stop-color="#ccf" />
		<stop offset="66.67%" stop-color="#cff" />
		<stop offset="83.33%" stop-color="#cff" />
		<stop offset="83.33%" stop-color="#cfc" />
	</linearGradient>
	<symbol id="letter-." viewBox="0 0 12 32">
		<path d="
			M6,26
			L6,26
		" />
	</symbol>
	<symbol id="letter-d" viewBox="0 0 20 32">
		<path d="
			M6,14
			Q6,10,10,10
			Q14,10,14,14
			L14,22
			Q14,26,10,26
			Q6,26,6,22
			L6,14
			M14,6
			L14,14
			M14,22
			L14,26
		" />
	</symbol>
	<symbol id="letter-a" viewBox="0 0 20 32">
		<path d="
			M6,14
			Q6,10,10,10
			Q14,10,14,14
			L14,22
			Q14,26,10,26
			Q6,26,6,22
			Q6,18,10,18
			Q14,18,14,14
			M14,22
			L14,26
		" />
	</symbol>
	<symbol id="letter-r" viewBox="0 0 20 32">
		<path d="
			M6,26
			L6,14
			Q6,10,10,10
			Q14,10,14,14
			M6,14
			L6,10
		" />
	</symbol>
	<symbol id="letter-t" viewBox="0 0 16 32">
		<path d="
			M10,26
			Q6,26,6,22
			L6,6
			M6,12
			L10,12
		" />
	</symbol>
	<symbol id=".dart" viewBox="0 0 59 32">
		<use href="#letter-." x="0" y="0" width="12" height="32" />
		<use href="#letter-d" x="4" y="0" width="20" height="32" />
		<use href="#letter-a" x="17" y="0" width="20" height="32" />
		<use href="#letter-r" x="30" y="0" width="20" height="32" />
		<use href="#letter-t" x="43" y="0" width="16" height="32" />
	</symbol>
	<rect x="32" y="32" width="192" height="192" rx="32" ry="32" fill="url(#gradient)" stroke-width="8" />
	<rect x="69" y="96" width="118" height="64" rx="8" ry="8" fill="#3333" stroke="none" />
	<use href="#.dart" x="69" y="96" width="118" height="64" fill="none" stroke-width="4" />
</svg>
